<?xml version="1.0" encoding="UTF-8" standalone="no"?>
<!DOCTYPE svg PUBLIC "-//W3C//DTD SVG 1.0//EN" "http://www.w3.org/TR/2001/PR-SVG-20010719/DTD/svg10.dtd">
<svg width="49cm" height="38cm" viewBox="-205 -239 980 748" xmlns="http://www.w3.org/2000/svg" xmlns:xlink="http://www.w3.org/1999/xlink">
  <g>
    <path style="fill: #ffffff" d="M 187.088 -73.074 C 220.846,-25.1356 176.748,28.538 158.804,88.1464 C 140.86,147.755 126.897,230.048 92.3358,277.652 C 57.7746,325.254 -90.909,371.592 -150.909,311.592 C -210.908,251.592 -217.376,88.1464 -179.193,13.1931 C -141.009,-61.7602 153.331,-121.012 187.088,-73.074z"/>
    <path style="fill: none; fill-opacity:0; stroke-width: 2; stroke-dasharray: 4; stroke: #000000" d="M 187.088 -73.074 C 220.846,-25.1356 176.748,28.538 158.804,88.1464 C 140.86,147.755 126.897,230.048 92.3358,277.652 C 57.7746,325.254 -90.909,371.592 -150.909,311.592 C -210.908,251.592 -217.376,88.1464 -179.193,13.1931 C -141.009,-61.7602 153.331,-121.012 187.088,-73.074"/>
  </g>
  <g>
    <path style="fill: #ffffff" d="M 392.15 -206.01 C 425.906,-158.072 399.22,-94.2872 366.694,-67.417 C 334.166,-40.547 259.214,-48.7966 232.344,-70.2454 C 205.472,-91.6944 181.431,-148.027 205.472,-196.111 C 229.514,-244.194 358.392,-253.948 392.15,-206.01z"/>
    <path style="fill: none; fill-opacity:0; stroke-width: 2; stroke-dasharray: 4; stroke: #000000" d="M 392.15 -206.01 C 425.906,-158.072 399.22,-94.2872 366.694,-67.417 C 334.166,-40.547 259.214,-48.7966 232.344,-70.2454 C 205.472,-91.6944 181.431,-148.027 205.472,-196.111 C 229.514,-244.194 358.392,-253.948 392.15,-206.01"/>
  </g>
  <g>
    <path style="fill: #ffffff" d="M 759.278 -105.836 C 793.036,-57.898 766.35,5.88664 733.822,32.7568 C 701.296,59.6268 626.342,51.3772 599.472,29.9282 C 572.602,8.47936 548.56,-47.8534 572.602,-95.9368 C 596.644,-144.02 725.52,-153.775 759.278,-105.836z"/>
    <path style="fill: none; fill-opacity:0; stroke-width: 2; stroke-dasharray: 4; stroke: #000000" d="M 759.278 -105.836 C 793.036,-57.898 766.35,5.88664 733.822,32.7568 C 701.296,59.6268 626.342,51.3772 599.472,29.9282 C 572.602,8.47936 548.56,-47.8534 572.602,-95.9368 C 596.644,-144.02 725.52,-153.775 759.278,-105.836"/>
  </g>
  <g>
    <path style="fill: #ffffff" d="M 391.582 24.2714 C 425.34,72.2098 398.654,135.994 366.126,162.864 C 333.6,189.734 258.646,181.485 231.776,160.036 C 204.906,138.587 180.865,82.2542 204.906,34.171 C 228.948,-13.9124 357.826,-23.6668 391.582,24.2714z"/>
    <path style="fill: none; fill-opacity:0; stroke-width: 2; stroke-dasharray: 4; stroke: #000000" d="M 391.582 24.2714 C 425.34,72.2098 398.654,135.994 366.126,162.864 C 333.6,189.734 258.646,181.485 231.776,160.036 C 204.906,138.587 180.865,82.2542 204.906,34.171 C 228.948,-13.9124 357.826,-23.6668 391.582,24.2714"/>
  </g>
  <g>
    <path style="fill: #ffffff" d="M 745.702 148.958 C 758.43,209.768 694.35,225.114 676.406,284.722 C 658.462,344.33 660.056,425.208 625.494,472.812 C 590.934,520.416 454.978,522.914 394.978,462.914 C 334.978,402.914 290.326,337.048 294.568,283.308 C 298.812,229.568 383.664,205.172 402.048,175.474 C 420.434,145.776 426.09,96.6318 423.262,74.0044 C 420.434,51.377 393.564,-18.2731 417.606,-33.476 C 441.646,-48.6788 448.608,-62.486 503.872,-36.3044 C 559.136,-10.1227 527.098,72.1588 567.512,96.6318 C 607.926,121.105 732.974,88.1464 745.702,148.958z"/>
    <path style="fill: none; fill-opacity:0; stroke-width: 2; stroke-dasharray: 4; stroke: #000000" d="M 745.702 148.958 C 758.43,209.768 694.35,225.114 676.406,284.722 C 658.462,344.33 660.056,425.208 625.494,472.812 C 590.934,520.416 454.978,522.914 394.978,462.914 C 334.978,402.914 290.326,337.048 294.568,283.308 C 298.812,229.568 383.664,205.172 402.048,175.474 C 420.434,145.776 426.09,96.6318 423.262,74.0044 C 420.434,51.377 393.564,-18.2731 417.606,-33.476 C 441.646,-48.6788 448.608,-62.486 503.872,-36.3044 C 559.136,-10.1227 527.098,72.1588 567.512,96.6318 C 607.926,121.105 732.974,88.1464 745.702,148.958"/>
  </g>
  <g>
    <g>
      <rect style="fill: #ffffff" x="250.502" y="-120" width="100" height="40"/>
      <rect style="fill: none; fill-opacity:0; stroke-width: 2; stroke: #000000" x="250.502" y="-120" width="100" height="40"/>
    </g>
    <text font-size="14.6756" style="fill: #000000;text-anchor:middle;font-family:sans-serif;font-style:normal;font-weight:normal" x="300.502" y="-94.925">
      <tspan x="300.502" y="-94.925">MySQL-LB</tspan>
    </text>
  </g>
  <g>
    <g>
      <rect style="fill: #ffffff" x="240.502" y="100" width="120" height="40"/>
      <rect style="fill: none; fill-opacity:0; stroke-width: 2; stroke: #000000" x="240.502" y="100" width="120" height="40"/>
    </g>
    <text font-size="14.6756" style="fill: #000000;text-anchor:middle;font-family:sans-serif;font-style:normal;font-weight:normal" x="300.502" y="125.075">
      <tspan x="300.502" y="125.075">Keystone-LB</tspan>
    </text>
  </g>
  <g>
    <g>
      <rect style="fill: #ffffff" x="-119.999" y="260" width="133" height="40"/>
      <rect style="fill: none; fill-opacity:0; stroke-width: 2; stroke: #000000" x="-119.999" y="260" width="133" height="40"/>
    </g>
    <text font-size="14.6756" style="fill: #000000;text-anchor:middle;font-family:sans-serif;font-style:normal;font-weight:normal" x="-53.499" y="285.075">
      <tspan x="-53.499" y="285.075">Glance-API-LB</tspan>
    </text>
  </g>
  <g>
    <g>
      <rect style="fill: #ffffff" x="-135.499" y="100" width="164" height="40"/>
      <rect style="fill: none; fill-opacity:0; stroke-width: 2; stroke: #000000" x="-135.499" y="100" width="164" height="40"/>
    </g>
    <text font-size="14.6756" style="fill: #000000;text-anchor:middle;font-family:sans-serif;font-style:normal;font-weight:normal" x="-53.499" y="125.075">
      <tspan x="-53.499" y="125.075">Glance-Registry-LB</tspan>
    </text>
  </g>
  <g>
    <g>
      <rect style="fill: #ffffff" x="462.502" y="440" width="118" height="40"/>
      <rect style="fill: none; fill-opacity:0; stroke-width: 2; stroke: #000000" x="462.502" y="440" width="118" height="40"/>
    </g>
    <text font-size="14.6756" style="fill: #000000;text-anchor:middle;font-family:sans-serif;font-style:normal;font-weight:normal" x="521.502" y="465.075">
      <tspan x="521.502" y="465.075">Nova-API-LB</tspan>
    </text>
  </g>
  <g>
    <g>
      <rect style="fill: #ffffff" x="620.502" y="-20" width="100" height="40"/>
      <rect style="fill: none; fill-opacity:0; stroke-width: 2; stroke: #000000" x="620.502" y="-20" width="100" height="40"/>
    </g>
    <text font-size="14.6756" style="fill: #000000;text-anchor:middle;font-family:sans-serif;font-style:normal;font-weight:normal" x="670.502" y="5.075">
      <tspan x="670.502" y="5.075">Queue-LB</tspan>
    </text>
  </g>
  <g>
    <g>
      <rect style="fill: #ffffff" x="229" y="-200" width="143.002" height="40"/>
      <rect style="fill: none; fill-opacity:0; stroke-width: 2; stroke-dasharray: 4.8; stroke: #000000" x="229" y="-200" width="143.002" height="40"/>
    </g>
    <text font-size="14.6756" style="fill: #000000;text-anchor:middle;font-family:sans-serif;font-style:normal;font-weight:normal" x="300.502" y="-174.925">
      <tspan x="300.502" y="-174.925">MySQL-backend</tspan>
    </text>
  </g>
  <g>
    <g>
      <rect style="fill: #ffffff" x="220" y="20" width="161.002" height="40"/>
      <rect style="fill: none; fill-opacity:0; stroke-width: 2; stroke: #000000" x="220" y="20" width="161.002" height="40"/>
    </g>
    <text font-size="14.6756" style="fill: #000000;text-anchor:middle;font-family:sans-serif;font-style:normal;font-weight:normal" x="300.502" y="45.075">
      <tspan x="300.502" y="45.075">Keystone-backend</tspan>
    </text>
  </g>
  <g>
    <g>
      <rect style="fill: #ffffff" x="-141" y="180" width="175.002" height="40"/>
      <rect style="fill: none; fill-opacity:0; stroke-width: 2; stroke: #000000" x="-141" y="180" width="175.002" height="40"/>
    </g>
    <text font-size="14.6756" style="fill: #000000;text-anchor:middle;font-family:sans-serif;font-style:normal;font-weight:normal" x="-53.499" y="205.075">
      <tspan x="-53.499" y="205.075">Glance-API-backend</tspan>
    </text>
  </g>
  <g>
    <g>
      <rect style="fill: #ffffff" x="-160" y="20" width="213.002" height="40"/>
      <rect style="fill: none; fill-opacity:0; stroke-width: 2; stroke: #000000" x="-160" y="20" width="213.002" height="40"/>
    </g>
    <text font-size="14.6756" style="fill: #000000;text-anchor:middle;font-family:sans-serif;font-style:normal;font-weight:normal" x="-53.499" y="45.075">
      <tspan x="-53.499" y="45.075">Glance-Registry-backend</tspan>
    </text>
  </g>
  <g>
    <g>
      <rect style="fill: #ffffff" x="440" y="360" width="163.002" height="40"/>
      <rect style="fill: none; fill-opacity:0; stroke-width: 2; stroke: #000000" x="440" y="360" width="163.002" height="40"/>
    </g>
    <text font-size="14.6756" style="fill: #000000;text-anchor:middle;font-family:sans-serif;font-style:normal;font-weight:normal" x="521.502" y="385.075">
      <tspan x="521.502" y="385.075">Nova-API-backend</tspan>
    </text>
  </g>
  <g>
    <g>
      <rect style="fill: #ffffff" x="600" y="-100" width="141.002" height="40"/>
      <rect style="fill: none; fill-opacity:0; stroke-width: 2; stroke: #000000" x="600" y="-100" width="141.002" height="40"/>
    </g>
    <text font-size="14.6756" style="fill: #000000;text-anchor:middle;font-family:sans-serif;font-style:normal;font-weight:normal" x="670.502" y="-74.925">
      <tspan x="670.502" y="-74.925">Queue-backend</tspan>
    </text>
  </g>
  <g>
    <g>
      <rect style="fill: #ffffff" x="80" y="-60" width="100" height="40"/>
      <rect style="fill: none; fill-opacity:0; stroke-width: 2; stroke-dasharray: 14; stroke: #000000" x="80" y="-60" width="100" height="40"/>
    </g>
    <text font-size="14.6756" style="fill: #000000;text-anchor:middle;font-family:sans-serif;font-style:normal;font-weight:normal" x="130" y="-34.925">
      <tspan x="130" y="-34.925">Glance-DB</tspan>
    </text>
  </g>
  <g>
    <g>
      <rect style="fill: #ffffff" x="420" y="-20" width="90.002" height="40"/>
      <rect style="fill: none; fill-opacity:0; stroke-width: 2; stroke: #000000" x="420" y="-20" width="90.002" height="40"/>
    </g>
    <text font-size="14.6756" style="fill: #000000;text-anchor:middle;font-family:sans-serif;font-style:normal;font-weight:normal" x="465.001" y="5.075">
      <tspan x="465.001" y="5.075">Nova-DB</tspan>
    </text>
  </g>
  <g>
    <g>
      <rect style="fill: #ffffff" x="320" y="260" width="142.002" height="40"/>
      <rect style="fill: none; fill-opacity:0; stroke-width: 2; stroke: #000000" x="320" y="260" width="142.002" height="40"/>
    </g>
    <text font-size="14.6756" style="fill: #000000;text-anchor:middle;font-family:sans-serif;font-style:normal;font-weight:normal" x="391.002" y="285.075">
      <tspan x="391.002" y="285.075">Nova-Scheduler</tspan>
    </text>
  </g>
  <g>
    <g>
      <rect style="fill: #ffffff" x="450.5" y="200" width="142.002" height="40"/>
      <rect style="fill: none; fill-opacity:0; stroke-width: 2; stroke: #000000" x="450.5" y="200" width="142.002" height="40"/>
    </g>
    <text font-size="14.6756" style="fill: #000000;text-anchor:middle;font-family:sans-serif;font-style:normal;font-weight:normal" x="521.502" y="225.075">
      <tspan x="521.502" y="225.075">Nova-Conductor</tspan>
    </text>
  </g>
  <g>
    <g>
      <rect style="fill: #ffffff" x="580" y="140" width="136.002" height="40"/>
      <rect style="fill: none; fill-opacity:0; stroke-width: 2; stroke: #000000" x="580" y="140" width="136.002" height="40"/>
    </g>
    <text font-size="14.6756" style="fill: #000000;text-anchor:middle;font-family:sans-serif;font-style:normal;font-weight:normal" x="648.002" y="165.075">
      <tspan x="648.002" y="165.075">Nova-Compute</tspan>
    </text>
  </g>
  <g>
    <line style="fill: none; fill-opacity:0; stroke-width: 2; stroke: #000000" x1="-53.499" y1="259.023" x2="-53.499" y2="230.713"/>
    <polygon style="fill: #000000" points="-53.499,223.213 -48.499,233.213 -53.499,230.713 -58.499,233.213 "/>
    <polygon style="fill: none; fill-opacity:0; stroke-width: 2; stroke: #000000" points="-53.499,223.213 -48.499,233.213 -53.499,230.713 -58.499,233.213 "/>
  </g>
  <g>
    <line style="fill: none; fill-opacity:0; stroke-width: 2; stroke: #000000" x1="-53.499" y1="179.023" x2="-53.499" y2="150.713"/>
    <polygon style="fill: #000000" points="-53.499,143.213 -48.499,153.213 -53.499,150.713 -58.499,153.213 "/>
    <polygon style="fill: none; fill-opacity:0; stroke-width: 2; stroke: #000000" points="-53.499,143.213 -48.499,153.213 -53.499,150.713 -58.499,153.213 "/>
  </g>
  <g>
    <line style="fill: none; fill-opacity:0; stroke-width: 2; stroke: #000000" x1="-53.499" y1="99.0234" x2="-53.499" y2="70.7126"/>
    <polygon style="fill: #000000" points="-53.499,63.2126 -48.499,73.2126 -53.499,70.7126 -58.499,73.2126 "/>
    <polygon style="fill: none; fill-opacity:0; stroke-width: 2; stroke: #000000" points="-53.499,63.2126 -48.499,73.2126 -53.499,70.7126 -58.499,73.2126 "/>
  </g>
  <g>
    <line style="fill: none; fill-opacity:0; stroke-width: 2; stroke: #000000" x1="35.0067" y1="179.999" x2="230.075" y2="135.916"/>
    <polygon style="fill: #000000" points="237.391,134.262 228.739,141.344 230.075,135.916 226.534,131.59 "/>
    <polygon style="fill: none; fill-opacity:0; stroke-width: 2; stroke: #000000" points="237.391,134.262 228.739,141.344 230.075,135.916 226.534,131.59 "/>
  </g>
  <g>
    <line style="fill: none; fill-opacity:0; stroke-width: 2; stroke: #000000" x1="39.3226" y1="60.9766" x2="230.075" y2="104.084"/>
    <polygon style="fill: #000000" points="237.391,105.738 226.534,108.41 230.075,104.084 228.739,98.6563 "/>
    <polygon style="fill: none; fill-opacity:0; stroke-width: 2; stroke: #000000" points="237.391,105.738 226.534,108.41 230.075,104.084 228.739,98.6563 "/>
  </g>
  <g>
    <path style="fill: none; fill-opacity:0; stroke-width: 2; stroke: #000000" d="M -53.499 20 C -20,-40 18.0739,-40 69.2595,-40"/>
    <polygon style="fill: #000000" points="76.7595,-40 66.7595,-35 69.2595,-40 66.7595,-45 "/>
    <polygon style="fill: none; fill-opacity:0; stroke-width: 2; stroke: #000000" points="76.7595,-40 66.7595,-35 69.2595,-40 66.7595,-45 "/>
  </g>
  <g>
    <path style="fill: none; fill-opacity:0; stroke-width: 2; stroke: #000000" d="M 34.002 200 C 99,200 140,200 130.442,-10.274"/>
    <polygon style="fill: #000000" points="130.102,-17.7662 135.55,-8.00359 130.442,-10.274 125.561,-7.54951 "/>
    <polygon style="fill: none; fill-opacity:0; stroke-width: 2; stroke: #000000" points="130.102,-17.7662 135.55,-8.00359 130.442,-10.274 125.561,-7.54951 "/>
  </g>
  <g>
    <line style="fill: none; fill-opacity:0; stroke-width: 2; stroke: #000000" x1="181.003" y1="-57.948" x2="240.315" y2="-78.8201"/>
    <polygon style="fill: #000000" points="247.39,-81.3097 239.617,-73.2738 240.315,-78.8201 236.297,-82.7067 "/>
    <polygon style="fill: none; fill-opacity:0; stroke-width: 2; stroke: #000000" points="247.39,-81.3097 239.617,-73.2738 240.315,-78.8201 236.297,-82.7067 "/>
  </g>
  <g>
    <line style="fill: none; fill-opacity:0; stroke-width: 2; stroke: #000000" x1="430.453" y1="-21.0022" x2="343.37" y2="-73.9404"/>
    <polygon style="fill: #000000" points="336.961,-77.8363 348.103,-76.9142 343.37,-73.9404 342.909,-68.3692 "/>
    <polygon style="fill: none; fill-opacity:0; stroke-width: 2; stroke: #000000" points="336.961,-77.8363 348.103,-76.9142 343.37,-73.9404 342.909,-68.3692 "/>
  </g>
  <g>
    <line style="fill: none; fill-opacity:0; stroke-width: 2; stroke: #000000" x1="300.502" y1="-120.977" x2="300.501" y2="-149.287"/>
    <polygon style="fill: #000000" points="300.501,-156.787 305.501,-146.787 300.501,-149.287 295.501,-146.787 "/>
    <polygon style="fill: none; fill-opacity:0; stroke-width: 2; stroke: #000000" points="300.501,-156.787 305.501,-146.787 300.501,-149.287 295.501,-146.787 "/>
  </g>
  <g>
    <line style="fill: none; fill-opacity:0; stroke-width: 2; stroke: #000000" x1="494.093" y1="358.998" x2="426.137" y2="306.924"/>
    <polygon style="fill: #000000" points="420.184,302.362 431.162,304.476 426.137,306.924 425.08,312.413 "/>
    <polygon style="fill: none; fill-opacity:0; stroke-width: 2; stroke: #000000" points="420.184,302.362 431.162,304.476 426.137,306.924 425.08,312.413 "/>
  </g>
  <g>
    <line style="fill: none; fill-opacity:0; stroke-width: 2; stroke: #000000" x1="521.501" y1="359.023" x2="521.501" y2="250.713"/>
    <polygon style="fill: #000000" points="521.501,243.213 526.501,253.213 521.501,250.713 516.501,253.213 "/>
    <polygon style="fill: none; fill-opacity:0; stroke-width: 2; stroke: #000000" points="521.501,243.213 526.501,253.213 521.501,250.713 516.501,253.213 "/>
  </g>
  <g>
    <line style="fill: none; fill-opacity:0; stroke-width: 2; stroke: #000000" x1="534.785" y1="358.998" x2="642.798" y2="188.228"/>
    <polygon style="fill: #000000" points="646.807,181.89 645.687,193.014 642.798,188.228 637.236,187.668 "/>
    <polygon style="fill: none; fill-opacity:0; stroke-width: 2; stroke: #000000" points="646.807,181.89 645.687,193.014 642.798,188.228 637.236,187.668 "/>
  </g>
  <g>
    <line style="fill: none; fill-opacity:0; stroke-width: 2; stroke: #000000" x1="521.502" y1="439.023" x2="521.501" y2="410.713"/>
    <polygon style="fill: #000000" points="521.501,403.213 526.501,413.213 521.501,410.713 516.501,413.213 "/>
    <polygon style="fill: none; fill-opacity:0; stroke-width: 2; stroke: #000000" points="521.501,403.213 526.501,413.213 521.501,410.713 516.501,413.213 "/>
  </g>
  <g>
    <line style="fill: none; fill-opacity:0; stroke-width: 2; stroke: #000000" x1="650.951" y1="139.023" x2="666.196" y2="30.6178"/>
    <polygon style="fill: #000000" points="667.241,23.1908 670.799,33.7897 666.196,30.6178 660.897,32.3971 "/>
    <polygon style="fill: none; fill-opacity:0; stroke-width: 2; stroke: #000000" points="667.241,23.1908 670.799,33.7897 666.196,30.6178 660.897,32.3971 "/>
  </g>
  <g>
    <path style="fill: none; fill-opacity:0; stroke-width: 2; stroke: #000000" d="M 526.358 199.001 C 544.856,119.001 575.336,80.9899 638.424,27.2999"/>
    <polygon style="fill: #000000" points="644.135,22.4391 639.76,32.728 638.424,27.2999 633.279,25.1125 "/>
    <polygon style="fill: none; fill-opacity:0; stroke-width: 2; stroke: #000000" points="644.135,22.4391 639.76,32.728 638.424,27.2999 633.279,25.1125 "/>
  </g>
  <g>
    <path style="fill: none; fill-opacity:0; stroke-width: 2; stroke: #000000" d="M 401.346 259.012 C 470.344,119.012 521.633,80.8324 623.579,25.4782"/>
    <polygon style="fill: #000000" points="630.17,21.8994 623.768,31.0652 623.579,25.4782 618.996,22.2771 "/>
    <polygon style="fill: none; fill-opacity:0; stroke-width: 2; stroke: #000000" points="630.17,21.8994 623.768,31.0652 623.579,25.4782 618.996,22.2771 "/>
  </g>
  <g>
    <line style="fill: none; fill-opacity:0; stroke-width: 2; stroke: #000000" x1="300.502" y1="99.0234" x2="300.501" y2="70.7126"/>
    <polygon style="fill: #000000" points="300.501,63.2126 305.501,73.2126 300.501,70.7126 295.501,73.2127 "/>
    <polygon style="fill: none; fill-opacity:0; stroke-width: 2; stroke: #000000" points="300.501,63.2126 305.501,73.2126 300.501,70.7126 295.501,73.2127 "/>
  </g>
  <g>
    <line style="fill: none; fill-opacity:0; stroke-width: 2; stroke: #000000" x1="300.501" y1="19.0051" x2="300.502" y2="-69.2691"/>
    <polygon style="fill: #000000" points="300.502,-76.7691 305.502,-66.769 300.502,-69.2691 295.502,-66.7691 "/>
    <polygon style="fill: none; fill-opacity:0; stroke-width: 2; stroke: #000000" points="300.502,-76.7691 305.502,-66.769 300.502,-69.2691 295.502,-66.7691 "/>
  </g>
  <g>
    <line style="fill: none; fill-opacity:0; stroke-width: 2; stroke: #000000" x1="396.55" y1="259.005" x2="456.965" y2="30.4078"/>
    <polygon style="fill: #000000" points="458.881,23.1567 461.16,34.1023 456.965,30.4078 451.492,31.5472 "/>
    <polygon style="fill: none; fill-opacity:0; stroke-width: 2; stroke: #000000" points="458.881,23.1567 461.16,34.1023 456.965,30.4078 451.492,31.5472 "/>
  </g>
  <g>
    <line style="fill: none; fill-opacity:0; stroke-width: 2; stroke: #000000" x1="516.114" y1="199.026" x2="472.809" y2="30.4042"/>
    <polygon style="fill: #000000" points="470.944,23.1399 478.274,31.5819 472.809,30.4042 468.588,34.0693 "/>
    <polygon style="fill: none; fill-opacity:0; stroke-width: 2; stroke: #000000" points="470.944,23.1399 478.274,31.5819 472.809,30.4042 468.588,34.0693 "/>
  </g>
  <g>
    <path style="fill: none; fill-opacity:0; stroke-width: 2; stroke: #000000" d="M 357.284 259.01 C 310.348,229.792 303.642,232.19 301.362,150.738"/>
    <polygon style="fill: #000000" points="301.152,143.241 306.43,153.097 301.362,150.738 296.434,153.377 "/>
    <polygon style="fill: none; fill-opacity:0; stroke-width: 2; stroke: #000000" points="301.152,143.241 306.43,153.097 301.362,150.738 296.434,153.377 "/>
  </g>
  <g>
    <path style="fill: none; fill-opacity:0; stroke-width: 2; stroke: #000000" d="M 449.497 213.959 C 378.127,207.971 376.176,186.774 331.426,147.287"/>
    <polygon style="fill: #000000" points="325.803,142.325 336.609,145.192 331.426,147.287 329.993,152.69 "/>
    <polygon style="fill: none; fill-opacity:0; stroke-width: 2; stroke: #000000" points="325.803,142.325 336.609,145.192 331.426,147.287 329.993,152.69 "/>
  </g>
  <g>
    <path style="fill: none; fill-opacity:0; stroke-width: 2; stroke: #000000" d="M 579.341 160 C 463.971,160 477.187,159.906 370.996,135.922"/>
    <polygon style="fill: #000000" points="363.68,134.269 374.536,131.595 370.996,135.922 372.333,141.35 "/>
    <polygon style="fill: none; fill-opacity:0; stroke-width: 2; stroke: #000000" points="363.68,134.269 374.536,131.595 370.996,135.922 372.333,141.35 "/>
  </g>
  <g>
    <rect style="fill: #ffffff" x="371" y="-145" width="100" height="40" rx="20" ry="20"/>
    <rect style="fill: none; fill-opacity:0; stroke-width: 2; stroke-linejoin: round; stroke-dasharray: 4; stroke: #000000" x="371" y="-145" width="100" height="40" rx="20" ry="20"/>
  </g>
  <text font-size="14.6756" style="fill: #000000;text-anchor:middle;font-family:sans-serif;font-style:normal;font-weight:700" x="421" y="-119.925">
    <tspan x="421" y="-119.925">Database</tspan>
  </text>
  <g>
    <rect style="fill: #ffffff" x="617" y="-156" width="100" height="40" rx="20" ry="20"/>
    <rect style="fill: none; fill-opacity:0; stroke-width: 2; stroke-linejoin: round; stroke-dasharray: 4; stroke: #000000" x="617" y="-156" width="100" height="40" rx="20" ry="20"/>
  </g>
  <g>
    <rect style="fill: #ffffff" x="296" y="354" width="100" height="40" rx="20" ry="20"/>
    <rect style="fill: none; fill-opacity:0; stroke-width: 2; stroke-linejoin: round; stroke-dasharray: 4; stroke: #000000" x="296" y="354" width="100" height="40" rx="20" ry="20"/>
  </g>
  <g>
    <rect style="fill: #ffffff" x="184" y="159" width="100" height="40" rx="20" ry="20"/>
    <rect style="fill: none; fill-opacity:0; stroke-width: 2; stroke-linejoin: round; stroke-dasharray: 4; stroke: #000000" x="184" y="159" width="100" height="40" rx="20" ry="20"/>
  </g>
  <g>
    <rect style="fill: #ffffff" x="36" y="243" width="100" height="40" rx="20" ry="20"/>
    <rect style="fill: none; fill-opacity:0; stroke-width: 2; stroke-linejoin: round; stroke-dasharray: 4; stroke: #000000" x="36" y="243" width="100" height="40" rx="20" ry="20"/>
  </g>
  <text font-size="14.6756" style="fill: #000000;text-anchor:middle;font-family:sans-serif;font-style:normal;font-weight:700" x="86" y="268.075">
    <tspan x="86" y="268.075">Glance</tspan>
  </text>
  <text font-size="14.6756" style="fill: #000000;text-anchor:middle;font-family:sans-serif;font-style:normal;font-weight:700" x="346" y="379.075">
    <tspan x="346" y="379.075">Nova</tspan>
  </text>
  <text font-size="14.6756" style="fill: #000000;text-anchor:middle;font-family:sans-serif;font-style:normal;font-weight:700" x="234" y="184.075">
    <tspan x="234" y="184.075">Keystone</tspan>
  </text>
  <text font-size="14.6756" style="fill: #000000;text-anchor:middle;font-family:sans-serif;font-style:normal;font-weight:700" x="667" y="-130.925">
    <tspan x="667" y="-130.925">Queue</tspan>
  </text>
</svg>
